<!-- Generator: Adobe Illustrator 23.0.1, SVG Export Plug-In  -->
<svg version="1.1" xmlns="http://www.w3.org/2000/svg" xmlns:xlink="http://www.w3.org/1999/xlink" x="0px" y="0px"
	 width="162.383px" height="121.277px" viewBox="0 0 162.383 121.277" style="enable-background:new 0 0 162.383 121.277;"
	 xml:space="preserve">
<style type="text/css">
	.st0{fill:#A7B1B7;}
	.st1{fill:#B3CDE0;}
</style>
<defs>
</defs>
<path class="st0" d="M95.085,29.617H5c-2.75,0-5-2.25-5-5V5c0-2.75,2.25-5,5-5h90.085c2.75,0,5,2.25,5,5v19.617
	C100.085,27.367,97.835,29.617,95.085,29.617z"/>
<path class="st1" d="M157.383,121.277H5c-2.75,0-5-2.25-5-5v-94.17c0-2.75,2.25-5,5-5h152.383c2.75,0,5,2.25,5,5v94.17
	C162.383,119.027,160.133,121.277,157.383,121.277z"/>
</svg>