<!-- Generator: Adobe Illustrator 23.0.1, SVG Export Plug-In  -->
<svg version="1.1" xmlns="http://www.w3.org/2000/svg" xmlns:xlink="http://www.w3.org/1999/xlink" x="0px" y="0px"
	 width="486.128px" height="10.529px" viewBox="0 0 486.128 10.529" style="enable-background:new 0 0 486.128 10.529;"
	 xml:space="preserve">
<style type="text/css">
	.st0{fill:#B3CDE0;}
	.st1{fill:#035B96;}
</style>
<defs>
</defs>
<path class="st0" d="M486.128,5.264L486.128,5.264c0,2.895-2.369,5.264-5.264,5.264H5.264C2.369,10.529,0,8.16,0,5.264v0
	C0,2.369,2.369,0,5.264,0l475.599,0C483.759,0,486.128,2.369,486.128,5.264z"/>
<path class="st1" d="M440.94,5.264L440.94,5.264c0,2.895-2.369,5.264-5.264,5.264H5.264C2.369,10.529,0,8.16,0,5.264v0
	C0,2.369,2.369,0,5.264,0h430.412C438.571,0,440.94,2.369,440.94,5.264z"/>
</svg>