<!-- Generator: Adobe Illustrator 23.0.1, SVG Export Plug-In  -->
<svg version="1.1" xmlns="http://www.w3.org/2000/svg" xmlns:xlink="http://www.w3.org/1999/xlink" x="0px" y="0px"
	 width="47.018px" height="47.018px" viewBox="0 0 47.018 47.018" style="enable-background:new 0 0 47.018 47.018;"
	 xml:space="preserve">
<style type="text/css">
	.st0{fill:#B3CDE0;}
	.st1{fill:#FFFFFF;}
</style>
<defs>
</defs>
<g>
	<circle class="st0" cx="23.509" cy="23.509" r="23.509"/>
	<path class="st1" d="M39.671,23.644c0,2.148-1.758,3.906-3.906,3.906H27.55v8.216c0,2.148-1.758,3.906-3.906,3.906h-0.269
		c-2.148,0-3.906-1.758-3.906-3.906V27.55h-8.216c-2.148,0-3.906-1.758-3.906-3.906v-0.269c0-2.148,1.758-3.906,3.906-3.906h8.216
		v-8.216c0-2.148,1.758-3.906,3.906-3.906h0.269c2.148,0,3.906,1.758,3.906,3.906v8.216h8.216c2.148,0,3.906,1.758,3.906,3.906
		V23.644z"/>
</g>
</svg>