<!-- Generator: Adobe Illustrator 23.0.1, SVG Export Plug-In  -->
<svg version="1.1" xmlns="http://www.w3.org/2000/svg" xmlns:xlink="http://www.w3.org/1999/xlink" x="0px" y="0px"
	 width="279.355px" height="54.261px" viewBox="0 0 279.355 54.261" style="enable-background:new 0 0 279.355 54.261;"
	 xml:space="preserve">
<style type="text/css">
	.st0{fill:#04396C;}
	.st1{fill:url(#SVGID_1_);}
	.st2{fill:#FCB813;}
	.st3{font-family:'Montserrat-Regular';}
	.st4{font-size:36px;}
	.st5{letter-spacing:8;}
	.st6{letter-spacing:9;}
	.st7{fill:url(#SVGID_2_);}
</style>
<defs>
</defs>
<g>
	<g>
		<path class="st0" d="M21.096,21.933c1.824,1.536,2.736,3.648,2.736,6.336c0,2.688-0.912,4.794-2.736,6.318
			c-1.824,1.524-4.344,2.286-7.56,2.286H6.768v7.956H4.104v-25.2h9.432C16.752,19.629,19.272,20.397,21.096,21.933z M19.188,32.895
			c1.32-1.092,1.98-2.633,1.98-4.626c0-2.04-0.66-3.605-1.98-4.698c-1.32-1.092-3.228-1.638-5.724-1.638H6.768v12.6h6.696
			C15.96,34.533,17.868,33.987,19.188,32.895z"/>
		<path class="st0" d="M55.8,44.829l-5.76-8.1c-0.648,0.072-1.32,0.108-2.016,0.108h-6.768v7.992h-2.664v-25.2h9.432
			c3.216,0,5.736,0.769,7.56,2.304c1.824,1.536,2.736,3.648,2.736,6.336c0,1.968-0.498,3.63-1.494,4.986
			c-0.996,1.356-2.418,2.334-4.266,2.934l6.156,8.64H55.8z M53.676,32.913c1.32-1.104,1.98-2.651,1.98-4.644
			c0-2.04-0.66-3.605-1.98-4.698c-1.32-1.092-3.228-1.638-5.724-1.638h-6.696v12.636h6.696
			C50.448,34.569,52.356,34.017,53.676,32.913z"/>
		<path class="st0" d="M77.849,43.371c-2.028-1.116-3.612-2.646-4.752-4.59c-1.14-1.944-1.71-4.128-1.71-6.552
			c0-2.424,0.57-4.608,1.71-6.552c1.14-1.944,2.724-3.474,4.752-4.59c2.028-1.116,4.29-1.674,6.786-1.674
			c2.496,0,4.746,0.552,6.75,1.656c2.003,1.104,3.582,2.634,4.734,4.59s1.728,4.146,1.728,6.57c0,2.424-0.576,4.614-1.728,6.57
			s-2.73,3.486-4.734,4.59c-2.004,1.104-4.254,1.656-6.75,1.656C82.139,45.045,79.877,44.487,77.849,43.371z M90.035,41.319
			c1.608-0.9,2.868-2.148,3.78-3.744c0.912-1.596,1.368-3.378,1.368-5.346c0-1.967-0.456-3.75-1.368-5.346
			c-0.912-1.596-2.172-2.844-3.78-3.744c-1.608-0.9-3.408-1.35-5.4-1.35c-1.992,0-3.798,0.45-5.418,1.35
			c-1.62,0.9-2.892,2.148-3.816,3.744c-0.924,1.596-1.386,3.378-1.386,5.346c0,1.968,0.462,3.75,1.386,5.346
			c0.924,1.596,2.196,2.844,3.816,3.744c1.62,0.9,3.426,1.35,5.418,1.35C86.627,42.669,88.427,42.219,90.035,41.319z"/>
		<path class="st0" d="M110.987,44.109c-1.224-0.624-2.22-1.512-2.988-2.664l1.584-1.8c1.392,2.064,3.204,3.096,5.436,3.096
			c3.12,0,4.68-1.848,4.68-5.544V21.933h-9.216v-2.304h11.844v17.46c0,2.641-0.618,4.626-1.854,5.958
			c-1.236,1.332-3.066,1.998-5.49,1.998C113.543,45.045,112.211,44.733,110.987,44.109z"/>
		<path class="st0" d="M157.139,42.525v2.304h-17.82v-25.2h17.28v2.304h-14.616v8.964h13.032v2.268h-13.032v9.36H157.139z"/>
		<path class="st0" d="M176.453,43.389c-2.004-1.104-3.576-2.634-4.716-4.59c-1.14-1.956-1.71-4.146-1.71-6.57
			c0-2.424,0.57-4.614,1.71-6.57c1.14-1.956,2.718-3.486,4.734-4.59c2.016-1.104,4.272-1.656,6.768-1.656
			c1.872,0,3.6,0.312,5.184,0.936c1.584,0.625,2.928,1.536,4.032,2.736l-1.692,1.692c-1.968-1.992-4.452-2.988-7.452-2.988
			c-1.992,0-3.804,0.456-5.436,1.368c-1.632,0.912-2.91,2.16-3.834,3.744c-0.924,1.584-1.386,3.361-1.386,5.328
			c0,1.968,0.462,3.744,1.386,5.328c0.924,1.584,2.202,2.832,3.834,3.744c1.632,0.912,3.444,1.368,5.436,1.368
			c3.024,0,5.508-1.008,7.452-3.024l1.692,1.692c-1.104,1.201-2.454,2.119-4.05,2.754c-1.596,0.636-3.33,0.954-5.202,0.954
			C180.706,45.045,178.456,44.493,176.453,43.389z"/>
		<path class="st0" d="M211.715,21.933h-8.856v-2.304h20.376v2.304h-8.856v22.896h-2.664V21.933z"/>
	</g>
</g>
<g>
	<linearGradient id="SVGID_1_" gradientUnits="userSpaceOnUse" x1="256.6728" y1="0" x2="256.6728" y2="49.4679">
		<stop  offset="0" style="stop-color:#F6921E"/>
		<stop  offset="0.2201" style="stop-color:#F37A22"/>
		<stop  offset="0.4594" style="stop-color:#F26825"/>
		<stop  offset="0.7125" style="stop-color:#F05D27"/>
		<stop  offset="1" style="stop-color:#F05A28"/>
	</linearGradient>
	<path class="st1" d="M274.228,43.559l0.001-8.871h0v-0.126h0l0-0.323l0.001-15.332c0-6.875-1.618-11.729-4.55-14.661
		C266.746,1.314,262.398,0,256.837,0c-6.37,0-10.415,1.921-12.842,4.347c-2.527,2.426-3.438,5.259-3.438,7.181
		c0,3.235,2.629,5.965,5.865,5.965c3.236,0,5.966-2.73,5.966-5.965c0-3.236-2.73-5.866-5.966-5.866
		c-0.505,0-1.517,0.101-2.225,0.404c1.922-2.325,5.258-4.045,8.494-4.045c1.719,0,3.64,0.506,4.955,1.821
		c1.214,1.313,2.124,3.842,2.124,7.583v13.299c-2.735-2.564-6.485-4.146-10.624-4.146c-7.934,0-14.443,5.812-15.099,13.211
		c-0.007,0.073-0.005,0.148-0.01,0.222c-0.001,0.001-0.003,0.001-0.005,0.002c-0.002,0.031-0.004,0.06-0.006,0.09
		c0.003-0.001,0.005-0.001,0.007-0.002c-0.021,0.306-0.041,0.611-0.041,0.921c0,0.577,0.045,1.142,0.114,1.701
		c16.065-14.528,39.01-6.425,39.01-6.425c-14.093-0.652-25.208,5.401-31.432,9.889c-0.316,0.248-2.238,1.758-4.513,3.664
		c2.772,3.41,7.099,5.615,11.975,5.615c4.735,0,8.962-2.07,11.741-5.313l0.197,0.46c1.516,2.427,4.348,4.854,9.504,4.854
		c0.122,0,0.237-0.004,0.355-0.006c1.671-0.078,5.739-0.67,8.408-4.44c0,0,0.002-0.005,0.003-0.008
		C274.063,48.209,274.228,43.559,274.228,43.559z"/>
	<path class="st2" d="M271.499,30.271c-0.054-0.001-0.108-0.002-0.162-0.003c-0.492-0.003-0.981-0.002-1.465,0.01
		c-0.212,0.005-0.42,0.016-0.63,0.025c-1.678,0.066-3.309,0.221-4.887,0.454c-0.163,0.024-0.327,0.047-0.49,0.073
		c-0.499,0.079-0.993,0.165-1.482,0.259c-0.141,0.027-0.281,0.056-0.421,0.085c-1.621,0.326-3.182,0.727-4.676,1.187
		c-0.068,0.021-0.136,0.04-0.204,0.061c-0.475,0.148-0.942,0.304-1.403,0.463c-0.108,0.037-0.216,0.075-0.323,0.113
		c-1.957,0.691-3.787,1.471-5.481,2.295c-0.114,0.055-0.228,0.111-0.34,0.167c-0.37,0.183-0.736,0.368-1.092,0.555
		c-0.097,0.051-0.19,0.102-0.286,0.153c-1.09,0.579-2.113,1.169-3.068,1.756c-0.161,0.099-0.323,0.198-0.48,0.297
		c-0.241,0.152-0.478,0.303-0.709,0.453c-0.19,0.124-0.375,0.247-0.559,0.369c-0.195,0.13-0.392,0.26-0.579,0.389
		c-0.349,0.239-0.687,0.476-1.01,0.708c-0.038,0.027-0.072,0.053-0.11,0.08c-0.389,0.305-2.257,1.777-4.473,3.633
		c0.526,0.647,1.109,1.251,1.741,1.804C252.799,31.527,268.469,30.361,271.499,30.271z"/>
</g>
</svg>