<!-- Generator: Adobe Illustrator 23.0.1, SVG Export Plug-In  -->
<svg version="1.1" xmlns="http://www.w3.org/2000/svg" xmlns:xlink="http://www.w3.org/1999/xlink" x="0px" y="0px"
	 width="188.228px" height="54.893px" viewBox="0 0 188.228 54.893" style="enable-background:new 0 0 188.228 54.893;"
	 xml:space="preserve">
<style type="text/css">
	.st0{fill:#0066B3;}
	.st1{fill:#F15A29;}
</style>
<defs>
</defs>
<g>
	<path class="st0" d="M9.605,46.306c-3.509,0-6.397-0.807-8.664-2.421l1.652-3.861c1.818,1.358,3.996,2.037,6.532,2.037
		c0.857,0,1.546-0.147,2.064-0.442c0.52-0.295,0.778-0.673,0.778-1.134c0-0.397-0.195-0.727-0.586-0.989
		c-0.391-0.262-0.894-0.471-1.508-0.625C9.26,38.717,8.581,38.56,7.839,38.4c-0.743-0.16-1.486-0.371-2.229-0.634
		c-0.742-0.263-1.421-0.589-2.036-0.98c-0.614-0.391-1.117-0.941-1.508-1.652c-0.391-0.71-0.593-1.546-0.605-2.507
		c-0.025-1.819,0.691-3.343,2.151-4.572c1.461-1.23,3.324-1.845,5.591-1.845c3.062,0,5.514,0.737,7.358,2.209l-1.575,4.015
		c-0.769-0.576-1.707-1.057-2.814-1.441c-1.108-0.384-2.175-0.576-3.199-0.576c-0.704,0-1.274,0.147-1.71,0.442
		c-0.436,0.295-0.653,0.66-0.653,1.095c0,0.333,0.154,0.624,0.462,0.874c0.307,0.25,0.707,0.452,1.2,0.605
		c0.493,0.154,1.057,0.324,1.69,0.509c0.635,0.186,1.278,0.368,1.931,0.547c0.653,0.18,1.297,0.429,1.932,0.75
		c0.634,0.32,1.2,0.682,1.7,1.085c0.499,0.403,0.905,0.932,1.22,1.585c0.313,0.653,0.477,1.396,0.49,2.229
		c0,1.793-0.715,3.269-2.143,4.428C13.662,45.726,11.834,46.306,9.605,46.306z"/>
	<path class="st0" d="M18.234,18.228c0.666-0.659,1.46-0.989,2.383-0.989c0.922,0,1.716,0.33,2.382,0.989
		c0.666,0.66,0.999,1.444,0.999,2.354c0,0.922-0.333,1.716-0.999,2.382s-1.46,0.999-2.382,0.999c-0.923,0-1.717-0.333-2.383-0.999
		s-0.999-1.46-0.999-2.382C17.235,19.672,17.568,18.887,18.234,18.228z M17.851,26.594h5.552v19.327h-5.552V26.594z"/>
	<path class="st0" d="M37.198,40.772l0.288,4.918c-0.742,0.358-1.69,0.538-2.843,0.538c-2.306,0-4.166-0.695-5.581-2.084
		c-1.416-1.39-2.123-3.314-2.123-5.773v-6.494h-3.593v-5.283h3.593v-5.072h5.552v5.072h4.746v5.283h-4.746v6.206
		c0,0.884,0.288,1.598,0.865,2.142c0.576,0.544,1.28,0.816,2.113,0.816C36.109,41.042,36.687,40.952,37.198,40.772z"/>
	<path class="st0" d="M55.894,35.413c0,0.781-0.052,1.505-0.153,2.171H41.85c0.256,1.306,0.813,2.302,1.672,2.987
		c0.857,0.686,1.952,1.028,3.285,1.028c0.87,0,1.706-0.186,2.507-0.557c0.8-0.371,1.367-0.845,1.7-1.421l4.322,2.651
		c-0.704,1.281-1.818,2.274-3.343,2.978s-3.291,1.057-5.302,1.057c-2.844,0-5.248-0.977-7.215-2.93
		c-1.966-1.953-2.948-4.358-2.948-7.214c0-2.805,0.97-5.165,2.91-7.079c1.94-1.915,4.319-2.873,7.138-2.873
		c2.612,0,4.818,0.891,6.618,2.67C54.993,30.661,55.894,32.838,55.894,35.413z M41.927,34.048h8.414
		c-0.115-0.96-0.563-1.761-1.345-2.401c-0.781-0.64-1.684-0.96-2.708-0.96c-1.153,0-2.102,0.295-2.844,0.884
		C42.701,32.16,42.195,32.985,41.927,34.048z"/>
</g>
<g>
	<path class="st1" d="M79.901,26.21c2.317,0,4.214,0.708,5.687,2.123c1.473,1.416,2.209,3.275,2.209,5.581v12.007h-5.59V35.067
		c0-1.153-0.302-2.065-0.903-2.738c-0.603-0.672-1.415-1.009-2.44-1.009c-0.679,0-1.338,0.195-1.979,0.586
		c-0.641,0.391-1.134,0.881-1.479,1.47v12.545h-5.552V35.067c0-1.14-0.305-2.049-0.913-2.728c-0.608-0.679-1.38-1.019-2.314-1.019
		c-0.794,0-1.505,0.199-2.133,0.596c-0.628,0.397-1.095,0.922-1.402,1.575v12.43h-5.552V26.594h5.552v2.209
		c0.512-0.73,1.242-1.345,2.19-1.844c0.947-0.5,2.056-0.75,3.323-0.75c2.484,0,4.277,0.903,5.38,2.709
		c0.64-0.755,1.485-1.396,2.535-1.921C77.57,26.472,78.697,26.21,79.901,26.21z"/>
	<path class="st1" d="M103.6,26.594h5.553v19.327H103.6v-2.286c-0.474,0.795-1.239,1.438-2.296,1.931
		c-1.057,0.493-2.193,0.74-3.41,0.74c-1.652,0-3.17-0.448-4.553-1.345c-1.384-0.896-2.473-2.116-3.267-3.66
		c-0.794-1.543-1.19-3.23-1.19-5.063c0-2.792,0.874-5.162,2.622-7.108s3.878-2.92,6.388-2.92c1.204,0,2.338,0.25,3.4,0.75
		c1.063,0.5,1.832,1.14,2.306,1.921V26.594z M99.123,41.041c0.936,0,1.81-0.224,2.623-0.672c0.813-0.448,1.431-1.024,1.854-1.729
		v-4.726c-0.423-0.73-1.041-1.326-1.854-1.787c-0.813-0.461-1.688-0.692-2.623-0.692c-1.357,0-2.497,0.458-3.419,1.374
		c-0.923,0.916-1.384,2.059-1.384,3.429c0,1.371,0.461,2.514,1.384,3.43C96.626,40.584,97.766,41.041,99.123,41.041z"/>
	<path class="st1" d="M130.739,45.921h-7.108l-7.013-8.664v8.664h-5.552v-27.55h5.552v16.215l6.686-7.992h6.82l-8.03,9.337
		L130.739,45.921z"/>
	<path class="st1" d="M147.734,35.412c0,0.781-0.052,1.505-0.153,2.171H133.69c0.256,1.307,0.813,2.303,1.672,2.987
		c0.857,0.686,1.952,1.028,3.285,1.028c0.87,0,1.706-0.186,2.507-0.558c0.8-0.371,1.367-0.845,1.7-1.421l4.322,2.65
		c-0.704,1.281-1.818,2.274-3.343,2.979s-3.291,1.057-5.302,1.057c-2.844,0-5.248-0.977-7.215-2.93
		c-1.966-1.953-2.948-4.358-2.948-7.215c0-2.805,0.97-5.165,2.91-7.079c1.94-1.915,4.319-2.873,7.138-2.873
		c2.612,0,4.818,0.891,6.618,2.67C146.833,30.661,147.734,32.838,147.734,35.412z M133.767,34.048h8.414
		c-0.115-0.96-0.563-1.761-1.345-2.401c-0.781-0.64-1.684-0.96-2.708-0.96c-1.153,0-2.102,0.295-2.844,0.884
		C134.541,32.16,134.036,32.985,133.767,34.048z"/>
	<path class="st1" d="M149.244,18.227c0.666-0.659,1.46-0.989,2.383-0.989c0.922,0,1.716,0.33,2.382,0.989
		c0.666,0.66,0.999,1.444,0.999,2.354c0,0.922-0.333,1.716-0.999,2.382s-1.46,0.999-2.382,0.999c-0.923,0-1.717-0.333-2.383-0.999
		s-0.999-1.46-0.999-2.382C148.245,19.672,148.578,18.887,149.244,18.227z M148.86,26.594h5.552v19.327h-5.552V26.594z"/>
	<path class="st1" d="M163.894,25.461v1.133h4.746l3.219,5.283h-7.965v14.044h-5.552V31.877h-5.632v-5.283h5.632v-1.402
		c0-2.459,0.707-4.387,2.123-5.783c1.415-1.396,3.275-2.094,5.581-2.094c1.075,0,2.023,0.199,2.843,0.596l-0.288,4.88
		c-0.641-0.192-1.217-0.288-1.729-0.288c-0.833,0-1.537,0.275-2.113,0.826C164.182,23.879,163.894,24.59,163.894,25.461z"/>
	<path class="st1" d="M182.253,26.594h5.975l-10.739,25.744h-5.937l3.573-7.992l-7.435-17.752h5.994l4.284,11.297L182.253,26.594z"
		/>
</g>
<polygon class="st1" points="129.176,15.818 139.633,3.052 134.99,3.052 124.582,15.818 "/>
<polygon class="st0" points="145.016,0 125.48,23.962 132.193,23.962 151.821,0 "/>
</svg>