<!-- Generator: Adobe Illustrator 23.0.1, SVG Export Plug-In  -->
<svg version="1.1" xmlns="http://www.w3.org/2000/svg" xmlns:xlink="http://www.w3.org/1999/xlink" x="0px" y="0px"
	 width="39.418px" height="48.36px" viewBox="0 0 39.418 48.36" style="enable-background:new 0 0 39.418 48.36;"
	 xml:space="preserve">
<style type="text/css">
	.st0{fill:none;stroke:#B3CDE0;stroke-miterlimit:10;}
</style>
<defs>
</defs>
<g>
	<path class="st0" d="M35.834,23.815c2.056,2.366,3.084,5.23,3.084,8.59c0,2.742-0.741,5.285-2.222,7.628
		c-1.482,2.344-3.737,4.235-6.766,5.671c-3.029,1.437-6.777,2.156-11.243,2.156c-3.273,0-6.512-0.398-9.717-1.194
		c-3.207-0.796-5.981-1.924-8.324-3.383L5.422,33.4c1.813,1.238,3.857,2.189,6.135,2.852c2.277,0.664,4.521,0.995,6.732,0.995
		c2.255,0,4.046-0.42,5.373-1.26c1.327-0.84,1.99-2.034,1.99-3.582c0-3.006-2.366-4.51-7.097-4.51h-5.505v-8.292l8.291-8.955H3.034
		V0.5h33.563v8.225l-9.618,10.348C30.826,19.869,33.778,21.45,35.834,23.815z"/>
</g>
</svg>