<!-- Generator: Adobe Illustrator 23.0.1, SVG Export Plug-In  -->
<svg version="1.1" xmlns="http://www.w3.org/2000/svg" xmlns:xlink="http://www.w3.org/1999/xlink" x="0px" y="0px"
	 width="39.733px" height="48.36px" viewBox="0 0 39.733 48.36" style="enable-background:new 0 0 39.733 48.36;"
	 xml:space="preserve">
<style type="text/css">
	.st0{fill:none;stroke:#B3CDE0;stroke-miterlimit:10;}
</style>
<defs>
</defs>
<g>
	<path class="st0" d="M39.233,37.446V47.86H3.083v-8.225l17.378-16.25c1.68-1.592,2.808-2.952,3.383-4.08
		c0.574-1.127,0.862-2.266,0.862-3.416c0-1.502-0.509-2.675-1.526-3.516c-1.018-0.839-2.499-1.26-4.444-1.26
		c-1.725,0-3.306,0.388-4.743,1.161c-1.438,0.774-2.62,1.89-3.549,3.35l-9.75-5.439C2.508,7.178,5.05,4.812,8.323,3.087
		C11.595,1.362,15.464,0.5,19.931,0.5c3.537,0,6.666,0.575,9.386,1.725c2.719,1.15,4.842,2.797,6.368,4.942
		c1.526,2.145,2.288,4.633,2.288,7.462c0,2.521-0.542,4.898-1.625,7.13c-1.084,2.234-3.173,4.766-6.268,7.595l-8.756,8.092H39.233z"
		/>
</g>
</svg>