<!-- Generator: Adobe Illustrator 23.0.1, SVG Export Plug-In  -->
<svg version="1.1" xmlns="http://www.w3.org/2000/svg" xmlns:xlink="http://www.w3.org/1999/xlink" x="0px" y="0px" width="28px"
	 height="28px" viewBox="0 0 28 28" style="enable-background:new 0 0 28 28;" xml:space="preserve">
<style type="text/css">
	.st0{fill:#FE5826;}
	.st1{fill-rule:evenodd;clip-rule:evenodd;fill:#FFFFFF;}
</style>
<defs>
</defs>
<g>
	<circle class="st0" cx="14" cy="14" r="14"/>
	<path class="st1" d="M11.166,5.853c-0.667-0.335-2.113-0.79-2.113,1.572l0,0v0v13.15c0,2.362,1.446,1.907,2.113,1.573l11.105-6.978
		c0.597-0.356,0.73-0.753,0.752-0.981l0,0c0.021-0.213-0.003-0.398-0.009-0.438l0,0c0-0.002,0-0.003-0.001-0.004
		c0-0.002,0-0.003,0-0.003l0,0c-0.042-0.234-0.202-0.589-0.742-0.911L11.166,5.853z"/>
</g>
</svg>