<!-- Generator: Adobe Illustrator 23.0.1, SVG Export Plug-In  -->
<svg version="1.1" xmlns="http://www.w3.org/2000/svg" xmlns:xlink="http://www.w3.org/1999/xlink" x="0px" y="0px" width="25px"
	 height="25px" viewBox="0 0 25 25" style="enable-background:new 0 0 25 25;" xml:space="preserve">
<style type="text/css">
	.st0{fill:#035B96;}
</style>
<defs>
</defs>
<path class="st0" d="M21.339,3.661c-4.881-4.881-12.796-4.881-17.678,0c-4.882,4.882-4.882,12.796,0,17.678
	c4.881,4.882,12.796,4.882,17.678,0C26.22,16.457,26.22,8.543,21.339,3.661z M20.556,12.668c-0.019,0.204-0.138,0.559-0.671,0.876
	L9.97,19.775c-0.595,0.299-1.886,0.705-1.886-1.404V6.63v0c0-2.109,1.291-1.703,1.886-1.404l9.915,6.231
	c0.482,0.287,0.625,0.604,0.663,0.813c0,0,0,0.001,0,0.003c0.001,0.001,0.001,0.003,0.001,0.004
	C20.554,12.312,20.575,12.477,20.556,12.668z"/>
</svg>