<!-- Generator: Adobe Illustrator 23.0.1, SVG Export Plug-In  -->
<svg version="1.1" xmlns="http://www.w3.org/2000/svg" xmlns:xlink="http://www.w3.org/1999/xlink" x="0px" y="0px" width="22px"
	 height="22px" viewBox="0 0 22 22" style="enable-background:new 0 0 22 22;" xml:space="preserve">
<style type="text/css">
	.st0{fill:#B3CDE0;}
</style>
<defs>
</defs>
<path class="st0" d="M18.778,3.222c-4.296-4.296-11.261-4.296-15.556,0c-4.296,4.296-4.296,11.261,0,15.556
	c4.296,4.296,11.261,4.296,15.556,0S23.074,7.518,18.778,3.222z M18.563,11.063c0,1.005-0.822,1.828-1.828,1.828h-3.844v3.844
	c0,1.005-0.822,1.828-1.828,1.828h-0.126c-1.005,0-1.828-0.822-1.828-1.828v-3.844H5.265c-1.005,0-1.828-0.822-1.828-1.828v-0.126
	c0-1.005,0.822-1.828,1.828-1.828h3.844V5.265c0-1.005,0.822-1.828,1.828-1.828h0.126c1.005,0,1.828,0.822,1.828,1.828v3.844h3.844
	c1.005,0,1.828,0.822,1.828,1.828V11.063z"/>
</svg>