<!-- Generator: Adobe Illustrator 23.0.1, SVG Export Plug-In  -->
<svg version="1.1" xmlns="http://www.w3.org/2000/svg" xmlns:xlink="http://www.w3.org/1999/xlink" x="0px" y="0px"
	 width="112.532px" height="112.532px" viewBox="0 0 112.532 112.532" style="enable-background:new 0 0 112.532 112.532;"
	 xml:space="preserve">
<style type="text/css">
	.st0{fill:none;stroke:#B3CDE0;stroke-width:11.7037;stroke-linecap:round;stroke-linejoin:round;stroke-miterlimit:10;}
	.st1{fill:#B3CDE0;}
</style>
<defs>
</defs>
<g>
	<circle class="st0" cx="75.304" cy="37.228" r="31.376"/>
	<path class="st1" d="M13.302,111.87L0.661,99.23c-0.882-0.882-0.882-2.325,0-3.207l32.13-32.13c0.882-0.882,2.325-0.882,3.207,0
		l12.64,12.64c0.882,0.882,0.882,2.325,0,3.207l-32.13,32.13C15.627,112.752,14.184,112.752,13.302,111.87z"/>
	<path class="st1" d="M41.01,77.521l-5.999-5.999c-0.419-0.419-0.419-1.103,0-1.522L50.26,54.751c0.419-0.419,1.103-0.419,1.522,0
		l5.999,5.999c0.419,0.419,0.419,1.103,0,1.522L42.532,77.521C42.114,77.939,41.429,77.939,41.01,77.521z"/>
</g>
</svg>