<?xml version="1.0" encoding="utf-8"?>
<!-- Generator: Adobe Illustrator 25.2.1, SVG Export Plug-In . SVG Version: 6.00 Build 0)  -->
<svg version="1.1" id="Layer_1" xmlns="http://www.w3.org/2000/svg" xmlns:xlink="http://www.w3.org/1999/xlink" x="0px" y="0px"
	 viewBox="0 0 57 51" style="enable-background:new 0 0 57 51;" xml:space="preserve">
<style type="text/css">
	.st0{fill:#FE5826;}
	.st1{fill:none;stroke:#FFFFFF;stroke-width:1.2391;stroke-linecap:round;stroke-linejoin:round;stroke-miterlimit:10;}
</style>
<g>
	<path class="st0" d="M52.3,17.35L38.78,3.83c-2.43-2.45-5.06-3.78-7.83-3.95l-0.07,0H-0.97v50.86c42.85,0,31.3,0,31.3,0
		c3,0,5.85-1.33,8.44-3.95l12.96-12.97C57.82,27.79,56.02,21.36,52.3,17.35z"/>
	<path class="st1" d="M23.01,31.23l-3.97-3.97h17.84c-0.94,5.91-6.05,10.43-12.22,10.43c-6.84,0-12.39-5.55-12.39-12.39
		s5.55-12.39,12.39-12.39c6.18,0,11.28,4.52,12.22,10.43H19.04l3.97-3.97"/>
</g>
</svg>
